<svg width="188" height="46" viewBox="0 0 188 46" fill="none" xmlns="http://www.w3.org/2000/svg">
<path d="M187.7 37.4V45.1H166.9V0.399994H187.7V7.99999H174.5V18.8H185V26.5H174.5V37.4H187.7ZM154.9 0.399994H162.5V45.1H154.9V23.1L151.9 34.5H144.5L141.5 23.1V45.1H133.9V0.399994H141.5L148.3 22L154.9 0.399994ZM123 7.99999H117.5V37.3H123V7.99999ZM126 0.399994C128.5 0.399994 130.7 2.49999 130.7 5.09999V40.4C130.7 43 128.5 45.1 126 45.1H114.6C112 45.1 109.9 42.9 109.9 40.4V5.09999C109.9 2.49999 112 0.399994 114.6 0.399994H126ZM98 28.6L105.7 26.8V40.4C105.7 43 103.5 45.1 101 45.1H89.6C87 45.1 84.9 42.9 84.9 40.4V5.09999C84.9 2.49999 87 0.399994 89.6 0.399994H101C103.5 0.399994 105.7 2.49999 105.7 5.09999V14.2L98 16V7.99999H92.5V37.3H98V28.6ZM81.2 37.4V45.1H63V0.399994H70.6V37.4H81.2ZM59.8 37.4V45.1H39V0.399994H59.8V7.99999H46.6V18.8H57.1V26.5H46.6V37.4H59.8ZM27.6 0.399994H35.3L34 45.1H19.5L17.5 26.6L15.5 45.1H1L0 0.399994H7.60001L8.2 37.4H9L13.8 0.399994H21.4L26.3 37.4H27.1L27.6 0.399994Z" fill="#81B3D3"/>
</svg>
